<?xml version="1.0" standalone="no"?>
<!DOCTYPE svg PUBLIC "-//W3C//DTD SVG 20010904//EN"
 "http://www.w3.org/TR/2001/REC-SVG-20010904/DTD/svg10.dtd">
<svg version="1.0" xmlns="http://www.w3.org/2000/svg"
 width="460.000000pt" height="460.000000pt" viewBox="0 0 460.000000 460.000000"
 preserveAspectRatio="xMidYMid meet">
<metadata>
Created by potrace 1.14, written by Peter Selinger 2001-2017
</metadata>
<g transform="translate(0.000000,460.000000) scale(0.100000,-0.100000)"
fill="#000000" stroke="none">
<path d="M3018 2588 c-3 -1170 -3 -1173 -25 -1250 -48 -168 -125 -263 -241
-297 -90 -26 -176 -34 -237 -22 -77 15 -157 48 -191 78 -130 118 -263 233
-270 233 -5 0 -79 -72 -165 -161 l-157 -161 76 -86 c42 -48 101 -111 132 -141
56 -54 186 -151 202 -151 6 0 45 -16 88 -35 120 -52 219 -69 400 -69 180 0
276 16 415 71 192 76 345 229 443 444 90 196 92 235 92 1584 l0 1135 -280 0
-279 0 -3 -1172z"/>
<path d="M1054 2982 c-219 -219 -457 -456 -527 -529 l-128 -131 526 -526 526
-526 165 157 c90 86 164 160 164 163 0 3 -163 168 -363 367 l-363 362 363 363
c200 200 362 368 361 374 -2 6 -75 81 -164 167 l-161 156 -399 -397z"/>
</g>
</svg>
